# Blender v3.2.2 OBJ File: 'Processing.blend'
# www.blender.org
mtllib 3_L_2.mtl
o 3_L_2_Plane.034
v -3.014399 3.400155 5.026982
v 2.972177 3.400155 5.026982
v 2.802860 3.618174 4.862465
v -2.659341 3.618174 4.862465
v 2.972177 3.618174 5.026982
v -2.828658 3.618174 5.026982
v -2.659341 3.519622 4.862465
v 2.802860 3.519622 4.862465
v -2.137157 3.399887 2.225177
v -2.137157 4.007821 2.225177
v -2.137157 3.399887 1.910136
v -2.137157 4.007821 1.910136
v -1.822116 3.399887 2.225177
v -1.822116 4.007821 2.225177
v -1.822116 3.399887 1.910136
v -1.822116 4.007821 1.910136
v -2.137157 4.046464 2.225177
v -2.137157 4.046464 1.910136
v -1.822116 4.046464 1.910136
v -1.822116 4.046464 2.225177
v -2.164393 4.007821 2.252413
v -2.164393 4.007821 1.882899
v -1.794879 4.007821 1.882899
v -1.794879 4.007821 2.252413
v -2.164393 4.059527 2.252413
v -2.164393 4.059527 1.882899
v -1.794879 4.059527 1.882899
v -1.794879 4.059527 2.252413
v -1.981289 4.134275 2.109585
v -1.981289 3.995012 2.109585
v -1.927607 3.986439 1.960921
v -1.927607 4.125702 1.960921
v -1.903147 3.986439 1.971053
v -1.903147 4.125702 1.971053
v -1.893015 3.986439 1.995513
v -1.893015 4.125702 1.995513
v -1.903147 3.986439 2.019974
v -1.903147 4.125702 2.019974
v -1.927607 3.986439 2.030105
v -1.927607 4.125702 2.030105
v -1.952067 3.986439 2.019974
v -1.952067 4.125702 2.019974
v -1.962199 3.986439 1.995513
v -1.962199 4.125702 1.995513
v -1.952067 3.986439 1.971053
v -1.952067 4.125702 1.971053
v -1.956829 3.995012 2.119717
v -1.956829 4.134275 2.119717
v -1.946697 3.995012 2.144177
v -1.946697 4.134275 2.144177
v -1.956829 3.995012 2.168637
v -1.956829 4.134275 2.168637
v -1.981289 3.995012 2.178769
v -1.981289 4.134275 2.178769
v -2.005749 3.995012 2.168637
v -2.005749 4.134275 2.168637
v -2.015881 3.995012 2.144177
v -2.015881 4.134275 2.144177
v -2.005749 3.995012 2.119717
v -2.005749 4.134275 2.119717
v -2.063935 4.181118 1.989079
v -2.063935 3.996476 1.989079
v -2.039475 3.996476 1.999211
v -2.039475 4.181118 1.999211
v -2.029343 3.996476 2.023671
v -2.029343 4.181118 2.023671
v -2.039475 3.996476 2.048131
v -2.039475 4.181118 2.048131
v -2.063935 3.996476 2.058263
v -2.063935 4.181118 2.058263
v -2.088395 3.996476 2.048131
v -2.088395 4.181118 2.048131
v -2.098527 3.996476 2.023671
v -2.098527 4.181118 2.023671
v -2.088395 3.996476 1.999211
v -2.088395 4.181118 1.999211
v 1.103862 3.618174 4.862465
v 1.103862 3.519622 4.862465
v 1.167848 3.618174 5.026982
v 1.110074 3.400155 5.026982
v 1.603066 3.618174 4.862465
v 1.603066 3.618174 5.026982
v 1.603066 3.400155 5.026982
v 1.603066 3.519622 4.862465
v -3.014399 3.400155 1.448211
v -2.828658 3.618174 1.448211
v -2.659341 3.618174 1.448211
v -2.659341 3.519622 1.448211
v 1.103862 3.519622 1.448211
v 1.603066 3.519622 1.448211
v -2.137157 3.399887 2.225177
v -2.137157 3.399887 1.910136
v -1.822116 3.399887 2.225177
v -1.822116 3.399887 1.910136
v -2.137157 1.936082 1.910136
v -2.137157 1.936082 2.225177
v -1.822116 1.936082 1.910136
v -1.822116 1.936082 2.225177
v -1.822116 3.399887 1.613692
v -2.137157 3.399887 1.613692
v -1.822116 1.936082 1.613692
v -2.137157 1.936082 1.613692
v -1.418197 3.399887 2.225177
v -1.418197 3.399887 1.910136
v -1.418197 1.936082 2.225177
v -1.418197 1.936082 1.910136
v -1.418197 3.399887 1.613692
v -1.418197 1.936082 1.613692
v -2.137157 2.154835 2.225177
v -1.822116 2.154835 2.225177
v -2.137157 2.154835 1.910136
v -1.822116 2.154835 1.613692
v -2.137157 2.154835 1.613692
v -1.418197 2.154835 2.225177
v -1.418197 2.154835 1.910136
v -1.418197 2.154835 1.613692
v -1.822116 2.537173 2.225177
v -2.137157 2.537173 1.910136
v -2.137157 2.537173 1.613692
v -1.418197 2.537173 2.225177
v -2.137157 2.537173 2.225177
v -1.822116 2.537173 1.613692
v -1.418197 2.537173 1.910136
v -1.418197 2.537173 1.613692
v -1.472483 1.936082 2.225177
v -1.472483 3.399887 2.225177
v -1.472483 3.399887 1.910136
v -1.472483 3.399887 1.613692
v -1.472483 1.936082 1.613692
v -1.472483 1.936082 1.910136
v -1.472483 2.154835 1.613692
v -1.472483 2.154835 2.225177
v -1.472483 2.537173 2.225177
v -1.472483 2.537173 1.613692
v -2.079783 3.399887 1.910136
v -2.079783 3.399887 2.225177
v -2.079783 1.936082 1.910136
v -2.079783 1.936082 2.225177
v -2.079783 3.399887 1.613692
v -2.079783 1.936082 1.613692
v -2.079783 2.154835 1.613692
v -2.079783 2.154835 2.225177
v -2.079783 2.537173 2.225177
v -2.079783 2.537173 1.613692
v -2.079783 2.154835 1.834198
v -1.822116 2.154835 1.834198
v -1.822116 2.537173 1.834198
v -2.079783 2.537173 1.834198
v -1.472483 2.154835 1.834198
v -1.472483 2.537173 1.834198
v -1.472483 2.154835 2.200818
v -1.472483 2.154835 2.218360
v -2.079783 2.154835 2.218360
v -2.079783 2.154835 2.200818
v -1.472483 2.212302 2.218360
v -2.079783 2.212302 2.218360
v -2.079783 2.212302 2.200818
v -1.472483 2.212302 2.200818
v 1.603066 3.400155 1.448211
v 1.110074 3.400155 1.448211
v 2.802860 3.519622 1.448211
v 2.972177 3.618174 1.448211
v 2.972177 3.400155 1.448211
v 2.802860 3.618174 1.448211
vt 0.618856 0.578054
vt 0.613711 0.578054
vt 0.613711 0.523684
vt 0.618856 0.523684
vt 0.629282 0.578054
vt 0.629282 0.523684
vt 0.630852 0.523684
vt 0.630852 0.578054
vt 0.610812 0.523684
vt 0.610812 0.578054
vt 0.605668 0.578054
vt 0.605668 0.523684
vt 0.633750 0.578054
vt 0.633750 0.523684
vt 0.635321 0.523684
vt 0.635321 0.578054
vt 0.095603 0.607578
vt 0.095603 0.612723
vt 0.094033 0.612723
vt 0.094033 0.607578
vt 0.089564 0.612723
vt 0.089564 0.607578
vt 0.091135 0.607578
vt 0.091135 0.612723
vt 0.645147 0.001449
vt 0.645147 0.016608
vt 0.339476 0.016608
vt 0.324747 0.001449
vt 0.001449 0.124023
vt 0.001449 0.001449
vt 0.321849 0.001449
vt 0.321849 0.124023
vt 0.320079 0.540313
vt 0.320079 0.594740
vt 0.291874 0.594740
vt 0.291874 0.540313
vt 0.602769 0.523684
vt 0.602769 0.578111
vt 0.574564 0.578111
vt 0.574564 0.523684
vt 0.257873 0.540313
vt 0.257873 0.594740
vt 0.229668 0.594740
vt 0.229668 0.540313
vt 0.288976 0.540313
vt 0.288976 0.594740
vt 0.260771 0.594740
vt 0.260771 0.540313
vt 0.257873 0.597638
vt 0.257873 0.625843
vt 0.229668 0.625843
vt 0.229668 0.597638
vt 0.192283 0.628225
vt 0.220488 0.628225
vt 0.222926 0.630664
vt 0.189844 0.630664
vt 0.156302 0.600020
vt 0.184507 0.600020
vt 0.184507 0.628225
vt 0.156302 0.628225
vt 0.153864 0.597582
vt 0.186946 0.597582
vt 0.220488 0.600020
vt 0.222926 0.597582
vt 0.186946 0.630664
vt 0.153864 0.630664
vt 0.616322 0.581010
vt 0.616322 0.614091
vt 0.611692 0.614091
vt 0.611692 0.581010
vt 0.626383 0.523684
vt 0.626383 0.556766
vt 0.621754 0.556766
vt 0.621754 0.523684
vt 0.265400 0.597638
vt 0.265400 0.630720
vt 0.260771 0.630720
vt 0.260771 0.597638
vt 0.623849 0.581009
vt 0.623849 0.614091
vt 0.619220 0.614091
vt 0.619220 0.581009
vt 0.192283 0.600020
vt 0.189844 0.597582
vt 0.272678 0.597638
vt 0.272678 0.614169
vt 0.270488 0.614169
vt 0.270488 0.597638
vt 0.082619 0.607578
vt 0.084990 0.607578
vt 0.086666 0.609254
vt 0.086666 0.611625
vt 0.084990 0.613301
vt 0.082619 0.613301
vt 0.080943 0.611625
vt 0.080943 0.609254
vt 0.025473 0.607578
vt 0.025473 0.620046
vt 0.023283 0.620046
vt 0.023283 0.607578
vt 0.055081 0.609254
vt 0.056757 0.607578
vt 0.059128 0.607578
vt 0.060804 0.609254
vt 0.060804 0.611625
vt 0.059128 0.613301
vt 0.056757 0.613301
vt 0.055081 0.611625
vt 0.310810 0.597638
vt 0.310810 0.610106
vt 0.308620 0.610106
vt 0.308620 0.597638
vt 0.005829 0.607578
vt 0.005829 0.620046
vt 0.003639 0.620046
vt 0.003639 0.607578
vt 0.287234 0.597638
vt 0.287234 0.614169
vt 0.285045 0.614169
vt 0.285045 0.597638
vt 0.010917 0.607578
vt 0.010917 0.620046
vt 0.008727 0.620046
vt 0.008727 0.607578
vt 0.001449 0.620046
vt 0.001449 0.607578
vt 0.037840 0.609254
vt 0.039516 0.607578
vt 0.041886 0.607578
vt 0.043562 0.609254
vt 0.043562 0.611625
vt 0.041886 0.613301
vt 0.039516 0.613301
vt 0.037840 0.611625
vt 0.013107 0.607578
vt 0.013107 0.620046
vt 0.020385 0.607578
vt 0.020385 0.620046
vt 0.018195 0.620046
vt 0.018195 0.607578
vt 0.065378 0.607578
vt 0.067748 0.607578
vt 0.069424 0.609254
vt 0.069424 0.611625
vt 0.067748 0.613301
vt 0.065378 0.613301
vt 0.063702 0.611625
vt 0.063702 0.609254
vt 0.301342 0.597638
vt 0.301342 0.610106
vt 0.299152 0.610106
vt 0.299152 0.597638
vt 0.016005 0.620046
vt 0.016005 0.607578
vt 0.034941 0.607578
vt 0.034941 0.620046
vt 0.032751 0.620046
vt 0.032751 0.607578
vt 0.303532 0.597638
vt 0.303532 0.610106
vt 0.318088 0.597638
vt 0.318088 0.610106
vt 0.315898 0.610106
vt 0.315898 0.597638
vt 0.072323 0.609254
vt 0.073999 0.607578
vt 0.076369 0.607578
vt 0.078045 0.609254
vt 0.078045 0.611625
vt 0.076369 0.613301
vt 0.073999 0.613301
vt 0.072323 0.611625
vt 0.030562 0.620046
vt 0.030562 0.607578
vt 0.313709 0.610106
vt 0.313709 0.597638
vt 0.268298 0.614169
vt 0.268298 0.597638
vt 0.306430 0.610106
vt 0.306430 0.597638
vt 0.027663 0.607578
vt 0.027663 0.620046
vt 0.050507 0.607578
vt 0.052183 0.609254
vt 0.052183 0.611625
vt 0.050507 0.613301
vt 0.048136 0.613301
vt 0.046460 0.611625
vt 0.046460 0.609254
vt 0.048136 0.607578
vt 0.277766 0.597638
vt 0.277766 0.614169
vt 0.275576 0.614169
vt 0.275576 0.597638
vt 0.296254 0.597638
vt 0.296254 0.614169
vt 0.294064 0.614169
vt 0.294064 0.597638
vt 0.279956 0.597638
vt 0.279956 0.614169
vt 0.291874 0.614169
vt 0.291874 0.597638
vt 0.282855 0.614169
vt 0.282855 0.597638
vt 0.725146 0.493367
vt 0.725146 0.799038
vt 0.716323 0.799038
vt 0.716323 0.493367
vt 0.670463 0.813766
vt 0.670463 0.493367
vt 0.689981 0.493367
vt 0.689981 0.813766
vt 0.953717 0.108864
vt 0.648046 0.108864
vt 0.648046 0.001449
vt 0.953717 0.001449
vt 0.324747 0.124023
vt 0.339476 0.124023
vt 0.701703 0.600782
vt 0.692880 0.600782
vt 0.692880 0.493367
vt 0.701703 0.493367
vt 0.979032 0.414841
vt 0.998551 0.414841
vt 0.998551 0.537415
vt 0.979032 0.537415
vt 0.979032 0.018078
vt 0.998551 0.001449
vt 0.998551 0.370705
vt 0.979032 0.375877
vt 0.701703 0.982386
vt 0.692880 0.982386
vt 0.692880 0.645474
vt 0.701703 0.645474
vt 0.324747 0.520786
vt 0.324747 0.162987
vt 0.339476 0.168715
vt 0.339476 0.505627
vt 0.953717 0.490469
vt 0.648046 0.490469
vt 0.648046 0.153557
vt 0.953717 0.153557
vt 0.001449 0.537415
vt 0.001449 0.168159
vt 0.321849 0.168159
vt 0.321849 0.537415
vt 0.648046 0.813767
vt 0.648046 0.493367
vt 0.667564 0.493367
vt 0.667564 0.813767
vt 0.645147 0.505627
vt 0.645147 0.520786
vt 0.713424 0.493367
vt 0.713424 0.799038
vt 0.704601 0.799038
vt 0.704601 0.493367
vt 0.029654 0.599543
vt 0.001449 0.599543
vt 0.001449 0.576475
vt 0.029654 0.576475
vt 0.087297 0.545450
vt 0.087297 0.568518
vt 0.059092 0.568518
vt 0.059092 0.545450
vt 0.397149 0.543269
vt 0.392013 0.543269
vt 0.392013 0.523684
vt 0.397149 0.523684
vt 0.087297 0.540313
vt 0.113837 0.540313
vt 0.113837 0.545450
vt 0.056194 0.545173
vt 0.029654 0.545173
vt 0.029654 0.540313
vt 0.056194 0.540313
vt 0.571666 0.543269
vt 0.543461 0.543269
vt 0.543461 0.523684
vt 0.571666 0.523684
vt 0.383978 0.543269
vt 0.360909 0.543269
vt 0.360909 0.523684
vt 0.383978 0.523684
vt 0.056194 0.576475
vt 0.056194 0.599543
vt 0.451519 0.543269
vt 0.451519 0.523684
vt 0.456380 0.523684
vt 0.456380 0.543269
vt 0.543461 0.577498
vt 0.543461 0.654735
vt 0.516921 0.654735
vt 0.516921 0.577498
vt 0.487483 0.543269
vt 0.459278 0.543269
vt 0.459278 0.523684
vt 0.487483 0.523684
vt 0.514023 0.523684
vt 0.514023 0.543269
vt 0.329607 0.577498
vt 0.329607 0.654735
vt 0.324747 0.654735
vt 0.324747 0.577498
vt 0.087297 0.599820
vt 0.113837 0.599820
vt 0.113837 0.604680
vt 0.087297 0.604680
vt 0.059092 0.599820
vt 0.059092 0.604680
vt 0.001449 0.545173
vt 0.001449 0.540313
vt 0.329607 0.523684
vt 0.329607 0.543269
vt 0.324747 0.543269
vt 0.324747 0.523684
vt 0.487483 0.577498
vt 0.514023 0.577498
vt 0.459278 0.577498
vt 0.516921 0.543269
vt 0.516921 0.523684
vt 0.451519 0.577498
vt 0.456380 0.577498
vt 0.383978 0.577498
vt 0.360909 0.577498
vt 0.571666 0.577498
vt 0.397149 0.577498
vt 0.392013 0.577498
vt 0.397149 0.654735
vt 0.392013 0.654735
vt 0.571666 0.654735
vt 0.383978 0.654735
vt 0.360909 0.654735
vt 0.451519 0.654735
vt 0.456380 0.654735
vt 0.487483 0.654735
vt 0.459278 0.654735
vt 0.514023 0.654735
vt 0.420218 0.654735
vt 0.420218 0.577498
vt 0.154638 0.594683
vt 0.154638 0.571615
vt 0.189641 0.571615
vt 0.189641 0.594683
vt 0.113837 0.568518
vt 0.420218 0.543269
vt 0.420218 0.523684
vt 0.389114 0.654735
vt 0.389114 0.577498
vt 0.154638 0.540313
vt 0.189641 0.540313
vt 0.389114 0.543269
vt 0.029654 0.604680
vt 0.056194 0.604680
vt 0.389114 0.523684
vt 0.059092 0.540313
vt 0.001449 0.604680
vt 0.192539 0.563381
vt 0.226769 0.563381
vt 0.226769 0.594683
vt 0.192539 0.594683
vt 0.192539 0.540313
vt 0.226769 0.540313
vt 0.116736 0.563381
vt 0.116736 0.540313
vt 0.151739 0.540313
vt 0.151739 0.563381
vt 0.608794 0.616013
vt 0.574564 0.616013
vt 0.574564 0.581010
vt 0.608794 0.581010
vt 0.116736 0.597582
vt 0.150966 0.597582
vt 0.150966 0.632585
vt 0.116736 0.632585
vt 0.116736 0.594683
vt 0.151739 0.594683
vt 0.976134 0.537415
vt 0.967310 0.522256
vt 0.976134 0.522256
vt 0.956615 0.414841
vt 0.967310 0.414841
vt 0.956615 0.370705
vt 0.967310 0.033237
vt 0.967310 0.370148
vt 0.976134 0.018078
vt 0.956615 0.001449
vt 0.956615 0.537415
vt 0.976134 0.033237
vn 0.0000 0.0000 -1.0000
vn 0.0000 1.0000 0.0000
vn 0.0000 0.0000 1.0000
vn 0.0000 -1.0000 0.0000
vn -1.0000 0.0000 0.0000
vn 1.0000 0.0000 0.0000
vn -0.1690 0.9710 0.1690
vn 0.1690 0.9710 0.1690
vn 0.1690 0.9710 -0.1690
vn -0.1690 0.9710 -0.1690
vn 0.0000 0.9017 0.4324
vn 0.0000 0.9017 -0.4324
vn -0.4324 0.9017 0.0000
vn 0.4324 0.9017 0.0000
vn 0.3827 0.0000 0.9239
vn 0.3827 0.0000 -0.9239
vn -0.9239 0.0000 0.3827
vn 0.9239 0.0000 -0.3827
vn -0.3827 0.0000 0.9239
vn 0.9239 0.0000 0.3827
vn -0.3827 0.0000 -0.9239
vn -0.9239 0.0000 -0.3827
vn -0.7612 0.6485 0.0000
usemtl Material.010
s off
f 154/1/1 157/2/1 158/3/1 151/4/1
f 156/5/2 155/6/2 158/7/2 157/8/2
f 153/9/3 152/10/3 155/11/3 156/12/3
f 152/13/4 153/14/4 154/15/4 151/16/4
f 153/17/5 156/18/5 157/19/5 154/20/5
f 155/21/6 152/22/6 151/23/6 158/24/6
s 1
f 162/25/2 164/26/2 3/27/2 5/28/2
f 159/29/4 163/30/4 2/31/4 83/32/4
f 9/33/5 10/34/5 12/35/5 11/36/5
f 11/37/1 12/38/1 16/39/1 15/40/1
f 15/41/6 16/42/6 14/43/6 13/44/6
f 13/45/3 14/46/3 10/47/3 9/48/3
f 11/49/4 15/50/4 13/51/4 9/52/4
f 14/53/4 16/54/4 23/55/4 24/56/4
f 19/57/7 18/58/8 17/59/9 20/60/10
f 18/58/8 19/57/7 27/61/11 26/62/11
f 16/54/4 12/63/4 22/64/4 23/55/4
f 20/60/10 17/59/9 25/65/12 28/66/12
f 23/67/1 22/68/1 26/69/1 27/70/1
f 24/71/6 23/72/6 27/73/6 28/74/6
f 22/75/5 21/76/5 25/77/5 26/78/5
f 21/79/3 24/80/3 28/81/3 25/82/3
f 19/57/7 20/60/10 28/66/13 27/61/13
f 17/59/9 18/58/8 26/62/14 25/65/14
f 12/63/4 10/83/4 21/84/4 22/64/4
f 10/83/4 14/53/4 24/56/4 21/84/4
f 67/85/15 68/86/15 70/87/15 69/88/15
f 48/89/2 29/90/2 60/91/2 58/92/2 56/93/2 54/94/2 52/95/2 50/96/2
f 31/97/16 32/98/16 34/99/16 33/100/16
f 62/101/4 63/102/4 65/103/4 67/104/4 69/105/4 71/106/4 73/107/4 75/108/4
f 55/109/17 56/110/17 58/111/17 57/112/17
f 33/113/18 34/114/18 36/115/18 35/116/18
f 71/117/17 72/118/17 74/119/17 73/120/17
f 53/121/19 54/122/19 56/123/19 55/124/19
f 35/116/20 36/115/20 38/125/20 37/126/20
f 64/127/2 61/128/2 76/129/2 74/130/2 72/131/2 70/132/2 68/133/2 66/134/2
f 51/135/15 52/136/15 54/122/15 53/121/15
f 37/137/15 38/138/15 40/139/15 39/140/15
f 30/141/4 47/142/4 49/143/4 51/144/4 53/145/4 55/146/4 57/147/4 59/148/4
f 49/149/20 50/150/20 52/151/20 51/152/20
f 39/140/19 40/139/19 42/153/19 41/154/19
f 59/155/21 60/156/21 29/157/21 30/158/21
f 47/159/18 48/160/18 50/150/18 49/149/18
f 41/161/17 42/162/17 44/163/17 43/164/17
f 34/165/2 32/166/2 46/167/2 44/168/2 42/169/2 40/170/2 38/171/2 36/172/2
f 30/158/16 29/157/16 48/173/16 47/174/16
f 43/164/22 44/163/22 46/175/22 45/176/22
f 69/88/19 70/87/19 72/177/19 71/178/19
f 57/112/22 58/111/22 60/179/22 59/180/22
f 45/181/21 46/182/21 32/98/21 31/97/21
f 31/183/4 33/184/4 35/185/4 37/186/4 39/187/4 41/188/4 43/189/4 45/190/4
f 65/191/20 66/192/20 68/193/20 67/194/20
f 75/195/21 76/196/21 61/197/21 62/198/21
f 63/199/18 64/200/18 66/192/18 65/191/18
f 62/198/16 61/197/16 64/201/16 63/202/16
f 73/120/22 74/119/22 76/203/22 75/204/22
f 161/205/5 8/206/5 3/207/5 164/208/5
f 162/209/6 5/210/6 2/211/6 163/212/6
f 90/213/2 84/214/2 8/215/2 161/216/2
f 82/217/2 5/28/2 3/27/2 81/218/2
f 84/219/1 81/220/1 3/221/1 8/222/1
f 82/223/3 83/224/3 2/225/3 5/226/3
f 6/227/3 1/228/3 80/229/3 79/230/3
f 7/231/1 4/232/1 77/233/1 78/234/1
f 6/235/2 79/236/2 77/237/2 4/238/2
f 88/239/2 7/240/2 78/241/2 89/242/2
f 85/243/4 160/244/4 80/245/4 1/246/4
f 79/230/3 80/229/3 83/224/3 82/223/3
f 78/234/1 77/233/1 81/220/1 84/219/1
f 79/236/2 82/217/2 81/218/2 77/237/2
f 89/242/2 78/241/2 84/214/2 90/213/2
f 160/244/4 159/29/4 83/32/4 80/245/4
f 6/247/23 86/248/23 85/249/23 1/250/23
f 6/235/2 4/238/2 87/251/2 86/252/2
f 7/253/6 88/254/6 87/255/6 4/256/6
f 135/257/2 136/258/2 93/259/2 94/260/2
f 137/261/4 97/262/4 98/263/4 138/264/4
f 142/265/3 109/266/3 96/267/3 138/268/3
f 137/261/4 95/269/4 102/270/4 140/271/4
f 128/272/2 127/273/2 104/274/2 107/275/2
f 109/276/5 111/277/5 95/278/5 96/279/5
f 141/280/1 112/281/1 101/282/1 140/283/1
f 135/257/2 94/260/2 99/284/2 139/285/2
f 132/286/3 125/287/3 105/288/3 114/289/3
f 118/290/5 92/291/5 100/292/5 119/293/5
f 115/294/6 114/295/6 105/296/6 106/297/6
f 115/294/6 106/297/6 108/298/6 116/299/6
f 134/300/1 128/301/1 107/302/1 124/303/1
f 130/304/4 129/305/4 108/306/4 106/307/4
f 125/308/4 130/304/4 106/307/4 105/309/4
f 127/273/2 126/310/2 103/311/2 104/274/2
f 129/312/1 131/313/1 116/314/1 108/315/1
f 123/316/6 115/294/6 116/299/6 124/317/6
f 123/316/6 120/318/6 114/295/6 115/294/6
f 95/278/5 111/277/5 113/319/5 102/320/5
f 133/321/3 132/286/3 114/289/3 120/322/3
f 144/323/1 122/324/1 112/281/1 141/280/1
f 121/325/5 118/290/5 111/277/5 109/276/5
f 143/326/3 121/327/3 109/266/3 142/265/3
f 136/328/3 91/329/3 121/327/3 143/326/3
f 91/330/5 92/291/5 118/290/5 121/325/5
f 139/331/1 99/332/1 122/324/1 144/323/1
f 126/333/3 133/321/3 120/322/3 103/334/3
f 104/335/6 103/336/6 120/318/6 123/316/6
f 104/335/6 123/316/6 124/317/6 107/337/6
f 131/313/1 134/300/1 124/303/1 116/314/1
f 111/277/5 118/290/5 119/293/5 113/319/5
f 112/281/1 122/324/1 134/300/1 131/313/1
f 93/338/3 117/339/3 133/321/3 126/333/3
f 142/340/2 110/341/2 146/342/2 145/343/2
f 101/282/1 112/281/1 131/313/1 129/312/1
f 94/260/2 93/259/2 126/310/2 127/273/2
f 98/263/4 97/262/4 130/304/4 125/308/4
f 97/262/4 101/344/4 129/305/4 130/304/4
f 122/324/1 99/332/1 128/301/1 134/300/1
f 110/345/3 98/346/3 125/287/3 132/286/3
f 99/284/2 94/260/2 127/273/2 128/272/2
f 100/347/1 139/331/1 144/323/1 119/348/1
f 93/338/3 136/328/3 143/326/3 117/339/3
f 110/341/2 132/349/2 149/350/2 146/342/2
f 119/348/1 144/323/1 141/280/1 113/351/1
f 92/352/2 135/257/2 139/285/2 100/353/2
f 113/351/1 141/280/1 140/283/1 102/354/1
f 97/262/4 137/261/4 140/271/4 101/344/4
f 110/345/3 142/265/3 138/268/3 98/346/3
f 95/269/4 137/261/4 138/264/4 96/355/4
f 92/352/2 91/356/2 136/258/2 135/257/2
f 147/357/3 146/358/3 149/359/3 150/360/3
f 147/357/3 148/361/3 145/362/3 146/358/3
f 117/363/4 143/364/4 148/365/4 147/366/4
f 132/367/5 133/368/5 150/369/5 149/370/5
f 143/371/6 142/372/6 145/373/6 148/374/6
f 133/375/4 117/363/4 147/366/4 150/376/4
f 162/377/1 161/378/1 164/379/1
f 161/378/1 159/380/1 90/381/1
f 160/382/1 90/381/1 159/380/1
f 160/382/1 88/383/1 89/384/1
f 86/385/1 88/383/1 85/386/1
f 162/377/1 163/387/1 161/378/1
f 161/378/1 163/387/1 159/380/1
f 160/382/1 89/384/1 90/381/1
f 160/382/1 85/386/1 88/383/1
f 86/385/1 87/388/1 88/383/1
